<svg width="24" height="24" viewBox="0 0 24 24" fill="none" xmlns="http://www.w3.org/2000/svg">
<path d="M12.429 23.9518C14.2642 23.6911 15.8731 21.7756 16.8855 18.9467C15.422 18.619 13.9285 18.4431 12.429 18.4221V23.9518Z" fill="white"/>
<path d="M15.3611 23.502C15.4696 23.4705 15.5776 23.4389 15.6849 23.4042C15.7753 23.375 15.8646 23.3436 15.9538 23.3124C16.0593 23.276 16.1645 23.2385 16.2692 23.1987C16.3584 23.1648 16.4468 23.1287 16.5354 23.0927C16.6376 23.0498 16.7396 23.0071 16.8405 22.9641C16.9287 22.9254 17.0162 22.8848 17.1038 22.8439C17.2028 22.7972 17.3015 22.7497 17.3993 22.7002C17.4852 22.6565 17.5708 22.6119 17.6567 22.566C17.7528 22.5145 17.8483 22.4619 17.9432 22.4079C18.0291 22.3593 18.1118 22.3105 18.1954 22.2602C18.2884 22.203 18.3809 22.1459 18.4729 22.0887C18.5552 22.0363 18.6373 21.9831 18.7183 21.9283C18.8088 21.8673 18.898 21.8039 18.9868 21.7404C19.0666 21.6832 19.146 21.6263 19.2239 21.5689C19.3098 21.5027 19.3977 21.4342 19.4838 21.3655C19.5602 21.3046 19.6365 21.244 19.7117 21.1814C19.7973 21.1102 19.8794 21.0365 19.9626 20.9628C20.0355 20.8981 20.1088 20.834 20.18 20.7676C20.2619 20.6911 20.3417 20.612 20.4214 20.5334C20.4906 20.4652 20.5605 20.3979 20.6282 20.328C20.6407 20.315 20.6527 20.301 20.6656 20.2875C19.7301 19.8044 18.7447 19.4251 17.7266 19.1566C17.1972 20.8451 16.2549 22.3752 14.9854 23.6079C15.0201 23.5989 15.0549 23.5916 15.0897 23.5826C15.1814 23.5568 15.2714 23.5286 15.3611 23.502Z" fill="white"/>
<path d="M24 12.4048H18.8571C18.8376 14.4129 18.5463 16.409 17.9911 18.339C19.1233 18.6414 20.2159 19.0762 21.2463 19.6343C22.9382 17.5953 23.9066 15.0529 24 12.4048Z" fill="white"/>
<path d="M12.429 11.547H17.9993C17.9775 9.60992 17.6933 7.6848 17.1549 5.82397C15.6038 6.1777 14.0196 6.36661 12.429 6.38756V11.547Z" fill="white"/>
<path d="M12.429 0V5.52971C13.9285 5.50856 15.422 5.33284 16.8855 5.00508C15.8731 2.17624 14.2642 0.260747 12.429 0Z" fill="white"/>
<path d="M12.429 17.5643C14.0196 17.5854 15.6038 17.7743 17.1549 18.1281C17.6933 16.2672 17.9775 14.3419 17.9993 12.4048H12.429V17.5643Z" fill="white"/>
<path d="M21.2463 4.3175C20.2159 4.87565 19.1233 5.31044 17.9911 5.61286C18.5463 7.5428 18.8376 9.53893 18.8571 11.547H24C23.9064 8.89911 22.9379 6.35677 21.2463 4.3175Z" fill="white"/>
<path d="M20.6668 3.66679C20.6542 3.65401 20.6423 3.64019 20.6299 3.62699C20.5621 3.55704 20.4917 3.4896 20.4226 3.42154C20.343 3.343 20.2636 3.26362 20.1815 3.18739C20.1105 3.12121 20.037 3.05859 19.9641 2.99261C19.881 2.91889 19.7979 2.84454 19.7124 2.77334C19.6383 2.71071 19.5622 2.65082 19.4868 2.59071C19.401 2.52118 19.313 2.45206 19.2246 2.38567C19.1471 2.32724 19.0686 2.27069 18.9896 2.21414C18.9 2.14964 18.81 2.08534 18.7186 2.02398C18.6384 1.96994 18.557 1.91717 18.4755 1.86544C18.3827 1.80575 18.2901 1.74731 18.1957 1.69077C18.113 1.64113 18.0294 1.59212 17.9456 1.54458C17.8497 1.48971 17.7536 1.43651 17.6566 1.38457C17.5707 1.34164 17.4851 1.29493 17.3992 1.252C17.3006 1.20215 17.2011 1.15419 17.0991 1.10707C17.0132 1.06623 16.9261 1.02644 16.8377 0.987693C16.7361 0.942665 16.6335 0.902034 16.5311 0.8591C16.4427 0.823077 16.3547 0.787473 16.2655 0.753545C16.1614 0.713752 16.0559 0.676473 15.9503 0.640031C15.8611 0.608616 15.7719 0.57741 15.6814 0.548089C15.5742 0.513323 15.4669 0.481698 15.3568 0.449864C15.2676 0.423685 15.1779 0.397086 15.0877 0.373211C15.0531 0.363786 15.0179 0.356456 14.9832 0.34745C16.2527 1.58018 17.1948 3.11011 17.7244 4.79878C18.7436 4.53029 19.7304 4.15079 20.6668 3.66679Z" fill="white"/>
<path d="M0 11.547H5.14289C5.16236 9.53893 5.45369 7.5428 6.00869 5.61286C4.87669 5.31065 3.78407 4.87586 2.75365 4.3175C1.06184 6.35656 0.093408 8.89911 0 11.547Z" fill="white"/>
<path d="M11.5711 23.9518V18.4221C10.0715 18.4433 8.57803 18.619 7.1145 18.9467C8.1267 21.7756 9.73579 23.6911 11.5711 23.9518Z" fill="white"/>
<path d="M11.5711 12.4048H6.00073C6.02251 14.3419 6.30651 16.2672 6.84517 18.1281C8.39625 17.7741 9.98021 17.5852 11.5711 17.5643V12.4048Z" fill="white"/>
<path d="M11.5711 0C9.73579 0.260747 8.1267 2.17624 7.1145 5.00508C8.57803 5.33305 10.0715 5.50877 11.5711 5.52971V0Z" fill="white"/>
<path d="M11.5711 6.38756C9.98042 6.36661 8.39625 6.1777 6.84517 5.82397C6.30651 7.6848 6.02251 9.60992 6.00073 11.547H11.5711V6.38756Z" fill="white"/>
<path d="M9.01339 0.347031C8.97862 0.356036 8.94386 0.363367 8.90909 0.372372C8.8182 0.396667 8.72856 0.423684 8.63808 0.449863C8.53043 0.481279 8.42362 0.512903 8.31555 0.547251C8.22445 0.576781 8.13481 0.608196 8.04517 0.639402C7.94025 0.676472 7.83511 0.713332 7.73123 0.752706C7.64159 0.787054 7.55321 0.822657 7.46441 0.859099C7.36241 0.902033 7.26021 0.944968 7.15947 0.987692C7.07109 1.02644 6.98376 1.06707 6.89621 1.10791C6.79715 1.15461 6.69851 1.20215 6.6007 1.25158C6.51483 1.29535 6.42896 1.34017 6.3433 1.38583C6.24717 1.43735 6.15188 1.49013 6.05722 1.54416C5.97135 1.59212 5.88694 1.64134 5.80422 1.6916C5.71102 1.74773 5.61887 1.80575 5.52714 1.86313C5.44462 1.91591 5.36273 1.9691 5.28168 2.02398C5.1912 2.08492 5.10198 2.14838 5.01318 2.21184C4.93339 2.26902 4.85401 2.32598 4.77589 2.38358C4.68814 2.44955 4.60436 2.51824 4.51598 2.58673C4.43975 2.64767 4.36289 2.7082 4.28833 2.77124C4.20246 2.84203 4.12099 2.91533 4.03826 2.98863C3.96496 3.05398 3.89103 3.11744 3.8194 3.18508C3.73793 3.26111 3.65856 3.34007 3.57897 3.41839C3.50986 3.48667 3.43949 3.55411 3.37163 3.62427C3.35927 3.63725 3.34734 3.6515 3.33435 3.66469C4.26969 4.14807 5.25529 4.52735 6.27335 4.79585C6.8028 3.10822 7.74442 1.57914 9.01339 0.347031Z" fill="white"/>
<path d="M3.57719 20.5303C3.65698 20.6088 3.73636 20.6882 3.81825 20.7646C3.88946 20.8306 3.96276 20.8932 4.03585 20.9592C4.119 21.0331 4.20214 21.1073 4.28759 21.1785C4.36173 21.2407 4.43734 21.3008 4.51315 21.3611C4.59902 21.4306 4.68468 21.4998 4.77558 21.5666C4.85286 21.6246 4.9314 21.6807 5.00993 21.7383C5.09957 21.8026 5.19005 21.8669 5.28136 21.9287C5.36157 21.9827 5.44304 22.0355 5.52452 22.0874C5.6173 22.1469 5.70987 22.2053 5.80432 22.2619C5.88705 22.3117 5.97061 22.3605 6.05439 22.4083C6.15031 22.4632 6.24644 22.5164 6.34341 22.5681C6.42906 22.611 6.51493 22.6577 6.6008 22.7007C6.69945 22.7505 6.79893 22.7985 6.90092 22.8458C6.98679 22.8862 7.07392 22.926 7.1623 22.965C7.26387 23.01 7.36629 23.0506 7.46891 23.0936C7.55729 23.1296 7.64525 23.1652 7.73447 23.1991C7.83856 23.2391 7.94412 23.2764 8.04967 23.3128C8.13889 23.344 8.22811 23.3755 8.31859 23.4046C8.42582 23.4393 8.53305 23.4712 8.64321 23.5028C8.73243 23.529 8.82207 23.5556 8.91213 23.5797C8.94689 23.5891 8.98208 23.5964 9.01684 23.6054C7.74725 22.3725 6.80521 20.8426 6.27555 19.1539C5.25749 19.4226 4.27188 19.8019 3.33655 20.2855C3.34911 20.2982 3.36105 20.3121 3.37362 20.3252C3.43791 20.3948 3.50724 20.4622 3.57719 20.5303Z" fill="white"/>
<path d="M2.75365 19.6343C3.78407 19.0762 4.87669 18.6414 6.00869 18.339C5.45369 16.409 5.16236 14.4129 5.14289 12.4048H0C0.0936175 15.0527 1.06184 17.595 2.75365 19.6343Z" fill="white"/>
</svg>
