<svg width="135" height="28" viewBox="0 0 135 28" fill="none" xmlns="http://www.w3.org/2000/svg">
<path d="M34.2749 11.4268C34.5683 11.4268 34.8617 11.6131 34.9915 11.8783C35.4712 12.8376 35.7082 14.1919 35.8662 16.2346C37.1133 11.2632 39.1108 8.76904 41.7122 8.76904C44.1274 8.76904 45.4309 10.8964 45.4309 13.0181C45.4309 14.0282 45.1657 15.0665 44.6578 15.9412H44.8948C45.318 15.9412 45.6904 16.3136 45.6904 16.7368C45.6904 17.16 45.318 17.5324 44.8948 17.5324H42.7674C42.3668 17.5324 41.9718 17.2164 41.9718 16.7368C41.9718 16.4434 42.1298 16.1782 42.395 16.0484C43.2189 15.6252 43.8283 14.2934 43.8283 13.0181C43.8283 11.4212 43.0044 10.3603 41.7009 10.3603C39.6808 10.3603 36.9158 13.7066 36.1201 25.8275C36.0919 26.1717 35.7759 26.5723 35.3245 26.5723C34.9012 26.5723 34.5288 26.1999 34.5288 25.7767C34.5288 17.8033 34.1846 13.8476 33.547 12.5723C33.4962 12.4651 33.468 12.3353 33.468 12.2281C33.4792 11.8218 33.8009 11.4268 34.2749 11.4268Z" fill="#005751"/>
<path d="M61.1125 11.9573C61.1125 12.3805 60.74 12.7529 60.3168 12.7529C59.9162 12.7529 59.5212 12.7811 59.1205 12.8319C59.1995 13.2551 59.256 13.6558 59.256 14.079C59.256 16.0427 57.8734 17.5324 56.0677 17.5324C54.8996 17.5324 53.9403 16.5731 53.9403 15.4051C53.9403 13.5993 55.3511 12.3748 56.9988 11.7372C56.5474 11.0205 55.9605 10.6199 55.2721 10.6199C53.9686 10.6199 52.5071 12.3748 51.0456 13.8363C49.7195 15.1624 47.2705 17.5268 44.9061 17.5268C44.4829 17.5268 44.1104 17.1543 44.1104 16.7311C44.1104 16.3079 44.4829 15.9355 44.9061 15.9355C46.2604 15.9355 48.5965 14.0508 49.9283 12.719C51.1246 11.5227 52.8513 9.02295 55.2664 9.02295C56.8352 9.02295 57.975 10.112 58.5901 11.3083C59.1487 11.2011 59.7356 11.1503 60.3168 11.1503C60.74 11.1616 61.1125 11.534 61.1125 11.9573ZM56.0677 15.9411C56.9198 15.9411 57.6647 15.3035 57.6647 14.079C57.6647 13.7855 57.6364 13.5203 57.5857 13.2269C56.2314 13.7573 55.5373 14.553 55.5373 15.4051C55.5373 15.7323 55.7461 15.9411 56.0677 15.9411Z" fill="#005751"/>
<path d="M64.8368 11.1618C64.8368 11.2408 64.8085 11.3198 64.786 11.3988C64.6505 11.8221 64.5715 12.5669 64.5715 13.0184C64.5715 15.1965 65.0738 15.9414 66.9641 15.9414C67.3873 15.9414 67.7598 16.3138 67.7598 16.737C67.7598 17.1602 67.3873 17.5327 66.9641 17.5327C64.0693 17.5327 62.9802 15.6197 62.9802 13.0184C62.9802 12.8039 62.9802 12.5951 63.0085 12.3525C62.2354 12.5669 61.3325 12.7531 60.3224 12.7531C59.8992 12.7531 59.5268 12.3807 59.5268 11.9575C59.5268 11.5343 59.8992 11.1618 60.3224 11.1618C62.3708 11.1618 63.5897 10.3662 64.0411 10.3662C64.5151 10.3606 64.8368 10.7612 64.8368 11.1618ZM65.8976 5.0506C65.8976 5.58103 65.6324 6.37668 65.102 6.37668C64.6505 6.37668 64.3063 6.03246 64.3063 5.58103C64.3063 5.0506 64.5715 4.25495 65.102 4.25495C65.5534 4.24931 65.8976 4.59917 65.8976 5.0506Z" fill="#005751"/>
<path d="M74.4015 14.3499C74.6949 14.3499 75.0899 13.9774 76.2354 11.9573C77.2455 10.1798 78.0693 8.76904 79.7171 8.76904C81.6582 8.76904 81.8444 10.8174 81.8444 12.7529C81.8444 15.8904 82.2676 15.9412 82.8545 15.9412H82.9053C83.3285 15.9412 83.7009 16.3136 83.7009 16.7368C83.7009 17.16 83.3285 17.5324 82.9053 17.5324C80.8851 17.5324 80.2475 15.8847 80.2475 12.7473C80.2475 10.4337 79.9033 10.3547 79.7171 10.3547C79.2374 10.3547 78.7352 10.8061 77.6179 12.7473C76.636 14.4458 75.9702 15.9355 74.4015 15.9355C73.5268 15.9355 72.8327 15.2696 72.4095 14.4232C70.8126 16.1782 68.9561 17.5324 66.9641 17.5324C66.5409 17.5324 66.1685 17.16 66.1685 16.7368C66.1685 16.3136 66.5409 15.9412 66.9641 15.9412C68.3749 15.9412 70.2031 14.6376 71.8283 12.6739C71.5913 11.5848 71.4841 10.3603 71.4841 8.76904C71.4841 4.46352 72.3362 0 75.2027 0C76.9859 0 77.5953 1.75494 77.5953 3.18823C77.5953 5.97582 75.8122 10.0726 73.5832 13.0464C73.9218 14.1636 74.3732 14.3499 74.4015 14.3499ZM75.1971 1.59694C74.345 1.59694 73.0697 4.04031 73.0697 8.76904C73.0697 9.54212 73.098 10.2306 73.1487 10.84C74.8472 8.18218 75.9927 5.07295 75.9927 3.18823C75.9927 1.96372 75.5413 1.59694 75.1971 1.59694Z" fill="#005751"/>
<path d="M92.7352 10.0952C92.8424 10.0952 92.9722 10.1234 93.0794 10.1742C94.9641 11.1053 94.8851 11.1561 96.9843 11.1561C97.4075 11.1561 97.7799 11.5285 97.7799 11.9517C97.7799 12.3749 97.4075 12.7474 96.9843 12.7474C96.4764 12.7474 96.025 12.7474 95.6807 12.7192C95.867 13.1988 95.9178 13.622 95.9178 14.0735C95.9178 16.7595 93.5534 18.3225 91.1326 18.3225C89.3269 18.3225 87.3575 17.4479 86.7763 15.614C85.7662 16.624 84.4909 17.5269 82.894 17.5269C82.4708 17.5269 82.0983 17.1545 82.0983 16.7312C82.0983 16.308 82.4708 15.9356 82.894 15.9356C84.9423 15.9356 86.9343 12.9336 87.8371 11.7373C87.9726 11.5511 88.2378 11.4157 88.503 11.4157C88.9544 11.4157 89.2761 11.8163 89.2761 12.2113C89.2761 12.3693 89.2253 12.5329 89.1406 12.6627C88.582 13.4866 88.2096 14.1525 88.2096 14.6039C88.2096 15.8284 89.4849 16.7312 91.1326 16.7312C92.9665 16.7312 94.3208 15.6422 94.3208 14.0735C94.3208 13.2214 94.0838 12.5837 92.3289 11.5737C92.1144 11.4382 91.9282 11.1504 91.9282 10.857C91.9395 10.3886 92.3345 10.0952 92.7352 10.0952Z" fill="#005751"/>
<path d="M99.9073 26.5723C98.4176 26.5723 97.2495 25.4043 97.2495 23.9145C97.2495 23.4913 97.6219 23.1189 98.0452 23.1189C98.4684 23.1189 98.8408 23.4913 98.8408 23.9145C98.8408 24.5522 99.264 24.9754 99.9017 24.9754C101.042 24.9754 101.764 23.8073 101.764 22.0524C101.764 19.3156 100.274 15.7549 99.2415 12.3015C98.5248 12.5949 97.7799 12.7529 96.9843 12.7529C96.5611 12.7529 96.1887 12.3805 96.1887 11.9573C96.1887 11.534 96.5611 11.1616 96.9843 11.1616C97.6219 11.1616 98.2314 11.0036 98.8182 10.7384C98.5248 9.51389 98.3104 8.31759 98.3104 7.17773C98.3104 4.11929 99.1342 0.80127 101.499 0.80127C103.333 0.80127 104.156 2.84964 104.156 4.78515C104.156 7.36395 102.746 9.96532 100.675 11.4833C101.685 14.9141 103.361 18.6836 103.361 22.058C103.361 24.0217 102.486 26.5723 99.9073 26.5723ZM101.504 2.39256C101.053 2.39256 99.9073 3.85407 99.9073 7.17773C99.9073 7.97338 100.015 8.87624 100.223 9.80731C101.634 8.53202 102.559 6.56266 102.559 4.78515C102.565 3.00199 101.798 2.39256 101.504 2.39256Z" fill="#005751"/>
<path d="M112.395 10.0952C112.502 10.0952 112.632 10.1234 112.739 10.1742C114.624 11.1053 114.545 11.1561 116.644 11.1561C117.067 11.1561 117.44 11.5285 117.44 11.9517C117.44 12.3749 117.067 12.7474 116.644 12.7474C116.142 12.7474 115.69 12.7474 115.341 12.7192C115.527 13.1988 115.578 13.622 115.578 14.0735C115.578 16.7595 113.213 18.3225 110.792 18.3225C108.721 18.3225 106.278 17.098 106.278 14.6039V14.4967C104.867 15.5857 103.57 16.703 102.187 18.0855C100.912 19.3608 98.8408 22.2049 98.8408 24.1686C98.8408 24.5918 98.4684 24.9642 98.0452 24.9642C97.6219 24.9642 97.2495 24.5918 97.2495 24.1686C97.2495 21.3528 99.6929 18.3508 101.075 16.9683C103.225 14.8183 105.274 13.1706 107.694 11.5454C107.83 11.4664 107.988 11.41 108.146 11.41C108.626 11.41 108.942 11.8107 108.942 12.2057C108.942 12.3637 108.891 12.5273 108.806 12.6571C108.248 13.4809 107.875 14.1468 107.875 14.5982C107.875 15.8227 109.15 16.7256 110.798 16.7256C112.632 16.7256 113.986 15.6365 113.986 14.0678C113.986 13.2157 113.749 12.5781 111.994 11.568C111.78 11.4326 111.594 11.1448 111.594 10.8514C111.599 10.3886 112 10.0952 112.395 10.0952Z" fill="#005751"/>
<path d="M133.657 17.5383C133.443 17.5383 133.257 17.4593 133.099 17.3013C132.089 16.2912 131.795 14.9877 131.795 13.5544C131.795 11.2408 131.451 11.1618 131.265 11.1618C130.813 11.1618 130.148 11.9067 129.008 13.6052C128.026 15.0949 127.095 16.7427 125.419 16.7427C123.478 16.7427 123.291 14.6943 123.291 12.7588C123.291 10.5524 122.947 10.3662 122.496 10.3662C121.965 10.3662 121.435 10.6314 120.82 11.0321C119.674 11.8051 118.427 12.7588 116.65 12.7588C116.227 12.7588 115.854 12.3863 115.854 11.9631C115.854 11.5399 116.227 11.1675 116.65 11.1675C117.79 11.1675 118.67 10.5298 119.917 9.70598C120.583 9.25455 121.429 8.7749 122.496 8.7749C124.488 8.7749 124.888 10.7161 124.888 12.7588C124.888 15.0724 125.233 15.1514 125.419 15.1514C125.87 15.1514 126.536 14.4065 127.676 12.708C128.658 11.2183 129.589 9.57055 131.265 9.57055C133.206 9.57055 133.392 11.6189 133.392 13.5544C133.392 14.7789 133.629 15.6028 134.216 16.184C134.374 16.342 134.453 16.5282 134.453 16.7427C134.453 17.1659 134.081 17.5383 133.657 17.5383Z" fill="#005751"/>
<path d="M27.4075 14.2989C27.4075 17.9837 25.9573 21.3186 23.5929 23.7789C22.6788 24.7382 21.6235 25.5621 20.4611 26.211C18.4635 27.3509 16.1556 27.9998 13.7009 27.9998C6.13382 27.9998 0 21.866 0 14.2989C0 6.73175 6.13382 0.592285 13.7009 0.592285C21.268 0.592285 27.4075 6.73175 27.4075 14.2989Z" fill="#005751"/>
<path d="M22.2386 20.6417C21.7702 20.6417 21.3132 20.4498 20.9859 20.1225C20.653 19.7952 20.4667 19.3325 20.4667 18.8698C20.4667 18.4014 20.6586 17.9444 20.9859 17.6114C21.3132 17.2841 21.7759 17.0923 22.2386 17.0923C22.707 17.0923 23.164 17.2841 23.497 17.6114C23.8243 17.9444 24.0161 18.4014 24.0161 18.8698C24.0161 19.3382 23.8243 19.7952 23.497 20.1225C23.164 20.4554 22.707 20.6417 22.2386 20.6417Z" fill="white"/>
<path d="M14.9706 2.91168C14.9028 2.90603 14.8408 2.90039 14.7731 2.90039C13.8815 2.90039 13.114 3.57189 13.0125 4.4804C12.9053 5.45097 13.605 6.33126 14.5812 6.43848C14.6489 6.44412 14.7166 6.44977 14.7787 6.44977C15.2245 6.44977 15.6421 6.28048 15.9581 5.99833C16.2741 5.71619 16.4885 5.32119 16.5393 4.86976C16.5449 4.80204 16.5506 4.73997 16.5506 4.67226C16.5506 3.78068 15.8791 3.01325 14.9706 2.91168ZM10.2588 5.0729C9.92582 4.5199 9.33332 4.20954 8.72953 4.20954C8.41917 4.20954 8.10881 4.29418 7.82102 4.46347C6.98023 4.96569 6.70937 6.05476 7.21159 6.89555C7.54452 7.4542 8.13138 7.75892 8.73517 7.75892C9.04553 7.75892 9.36153 7.67991 9.64368 7.51063C10.2023 7.17206 10.507 6.5852 10.507 5.98141C10.507 5.67105 10.428 5.35505 10.2588 5.0729ZM21.6066 6.00398C21.2624 5.67669 20.8222 5.51305 20.3821 5.51305C19.9137 5.51305 19.4454 5.69926 19.0955 6.06605C18.4184 6.77141 18.4466 7.89999 19.1576 8.57149C19.5018 8.89878 19.9419 9.06242 20.3821 9.06242C20.8504 9.06242 21.3188 8.88185 21.663 8.51506C21.9903 8.17085 22.154 7.72506 22.154 7.28491C22.154 6.81655 21.9734 6.35384 21.6066 6.00398ZM5.37765 9.03985C5.16322 8.94956 4.93751 8.91006 4.71744 8.91006C4.01208 8.91006 3.34621 9.33328 3.06407 10.0274C2.70293 10.9359 3.14307 11.9685 4.05158 12.3297C4.27165 12.4199 4.49172 12.4651 4.71179 12.4651C5.41715 12.4651 6.08301 12.0419 6.35952 11.3478C6.4498 11.1277 6.4893 10.9076 6.4893 10.6876C6.4893 9.98221 6.06609 9.31635 5.37765 9.03985ZM25.0149 12.482C24.8795 11.613 24.1233 10.9866 23.26 10.9866C23.1697 10.9866 23.0794 10.9923 22.9835 11.0092C22.0185 11.1616 21.3527 12.0757 21.5107 13.0407C21.5784 13.4808 21.8041 13.8532 22.1145 14.1184C22.4305 14.3837 22.8311 14.536 23.26 14.536C23.3559 14.536 23.4462 14.5304 23.5421 14.5134C24.4168 14.378 25.0375 13.6275 25.0375 12.7698C25.0375 12.6739 25.0318 12.5779 25.0149 12.482ZM6.07173 16.3925C5.8573 15.6082 5.14065 15.089 4.36193 15.089C4.20958 15.089 4.05158 15.106 3.89357 15.1511C2.94557 15.4107 2.39257 16.3869 2.65214 17.3349C2.75935 17.7243 2.99071 18.0515 3.29543 18.2829C3.60014 18.5086 3.97258 18.6384 4.36193 18.6384C4.51429 18.6384 4.67229 18.6158 4.83029 18.5763C5.6203 18.3619 6.1338 17.6453 6.1338 16.8665C6.1338 16.7085 6.11687 16.5505 6.07173 16.3925ZM8.89882 20.5796C8.57717 20.3369 8.1991 20.2184 7.82102 20.2184C7.29059 20.2184 6.76016 20.4554 6.4103 20.9125C5.81216 21.6912 5.96451 22.8028 6.73759 23.401C7.05923 23.6493 7.44295 23.7678 7.82102 23.7678C8.35145 23.7678 8.88189 23.5251 9.23175 23.0681C9.47439 22.7464 9.59289 22.3683 9.59289 21.9903C9.59289 21.4598 9.35589 20.9294 8.89882 20.5796Z" fill="white"/>
<path d="M13.7009 25.754C13.2326 25.754 12.7755 25.5621 12.4482 25.2348C12.1209 24.9019 11.9291 24.4448 11.9291 23.9765C11.9291 23.5081 12.1209 23.051 12.4482 22.7237C12.7812 22.3908 13.2382 22.2046 13.7009 22.2046C14.1693 22.2046 14.6264 22.3964 14.9593 22.7237C15.2866 23.0567 15.4785 23.5137 15.4785 23.9765C15.4785 24.4448 15.2866 24.9019 14.9593 25.2348C14.6264 25.5678 14.1693 25.754 13.7009 25.754Z" fill="white"/>
<path d="M23.5929 23.7787C22.6788 24.738 21.6236 25.5618 20.4611 26.2108C19.4623 25.5506 18.0968 24.1624 17.6566 21.42L18.4748 20.9121C18.4748 20.9121 20.5458 23.1918 23.5929 23.7787Z" fill="white"/>
<path d="M18.4184 12.8995C18.2491 14.5755 17.5324 15.6589 16.6296 17.0358C16.4659 17.2897 16.2402 17.6057 15.9581 17.9217C15.8001 18.1192 15.6477 18.2321 15.4784 18.3675C13.7009 19.8234 11.2237 17.0019 10.1685 15.7605C9.01733 14.4118 7.80411 11.7089 10.0782 10.6763C11.5002 10.0273 13.0633 11.2405 14.0677 12.5102C14.5869 11.5396 15.5349 10.3377 16.6578 10.2418C18.187 10.1176 18.5425 11.6976 18.4184 12.8995Z" fill="#A6CBB9"/>
</svg>
