<svg width="135" height="29" viewBox="0 0 135 29" fill="none" xmlns="http://www.w3.org/2000/svg">
<path d="M34.275 11.6236C34.5684 11.6236 34.8618 11.8098 34.9916 12.0751C35.4712 13.0343 35.7082 14.3886 35.8662 16.4314C37.1133 11.46 39.1109 8.96582 41.7123 8.96582C44.1274 8.96582 45.4309 11.0932 45.4309 13.2149C45.4309 14.225 45.1657 15.2633 44.6579 16.1379H44.8949C45.3181 16.1379 45.6905 16.5104 45.6905 16.9336C45.6905 17.3568 45.3181 17.7292 44.8949 17.7292H42.7675C42.3668 17.7292 41.9718 17.4132 41.9718 16.9336C41.9718 16.6401 42.1298 16.3749 42.3951 16.2451C43.2189 15.8219 43.8284 14.4902 43.8284 13.2149C43.8284 11.618 43.0045 10.5571 41.701 10.5571C39.6808 10.5571 36.9158 13.9033 36.1202 26.0243C36.092 26.3685 35.776 26.7691 35.3245 26.7691C34.9013 26.7691 34.5289 26.3967 34.5289 25.9735C34.5289 18.0001 34.1847 14.0444 33.547 12.7691C33.4962 12.6619 33.468 12.5321 33.468 12.4249C33.4793 12.0186 33.8009 11.6236 34.275 11.6236Z" fill="#F6F6F7"/>
<path d="M61.1125 12.154C61.1125 12.5772 60.7401 12.9497 60.3168 12.9497C59.9162 12.9497 59.5212 12.9779 59.1206 13.0287C59.1996 13.4519 59.256 13.8525 59.256 14.2758C59.256 16.2395 57.8735 17.7292 56.0678 17.7292C54.8997 17.7292 53.9404 16.7699 53.9404 15.6018C53.9404 13.7961 55.3511 12.5716 56.9988 11.934C56.5474 11.2173 55.9605 10.8167 55.2721 10.8167C53.9686 10.8167 52.5071 12.5716 51.0456 14.0331C49.7195 15.3592 47.2705 17.7236 44.9061 17.7236C44.4829 17.7236 44.1105 17.3511 44.1105 16.9279C44.1105 16.5047 44.4829 16.1323 44.9061 16.1323C46.2604 16.1323 48.5966 14.2475 49.9283 12.9158C51.1246 11.7195 52.8513 9.21973 55.2665 9.21973C56.8352 9.21973 57.975 10.3088 58.5901 11.5051C59.1488 11.3979 59.7356 11.3471 60.3168 11.3471C60.7401 11.3584 61.1125 11.7308 61.1125 12.154ZM56.0678 16.1379C56.9198 16.1379 57.6647 15.5003 57.6647 14.2758C57.6647 13.9823 57.6365 13.7171 57.5857 13.4237C56.2314 13.9541 55.5373 14.7498 55.5373 15.6018C55.5373 15.9291 55.7461 16.1379 56.0678 16.1379Z" fill="#F6F6F7"/>
<path d="M64.8368 11.3584C64.8368 11.4374 64.8086 11.5164 64.786 11.5954C64.6506 12.0186 64.5716 12.7635 64.5716 13.2149C64.5716 15.393 65.0738 16.1379 66.9642 16.1379C67.3874 16.1379 67.7598 16.5103 67.7598 16.9335C67.7598 17.3568 67.3874 17.7292 66.9642 17.7292C64.0694 17.7292 62.9803 15.8163 62.9803 13.2149C62.9803 13.0005 62.9803 12.7917 63.0085 12.549C62.2354 12.7635 61.3326 12.9497 60.3225 12.9497C59.8993 12.9497 59.5269 12.5772 59.5269 12.154C59.5269 11.7308 59.8993 11.3584 60.3225 11.3584C62.3709 11.3584 63.5897 10.5627 64.0412 10.5627C64.5152 10.5571 64.8368 10.9577 64.8368 11.3584ZM65.8977 5.24713C65.8977 5.77756 65.6325 6.57321 65.102 6.57321C64.6506 6.57321 64.3064 6.22899 64.3064 5.77756C64.3064 5.24713 64.5716 4.45148 65.102 4.45148C65.5535 4.44584 65.8977 4.7957 65.8977 5.24713Z" fill="#F6F6F7"/>
<path d="M74.4016 14.5466C74.695 14.5466 75.09 14.1742 76.2355 12.1541C77.2456 10.3765 78.0694 8.96582 79.7171 8.96582C81.6583 8.96582 81.8445 11.0142 81.8445 12.9497C81.8445 16.0871 82.2677 16.1379 82.8546 16.1379H82.9054C83.3286 16.1379 83.701 16.5104 83.701 16.9336C83.701 17.3568 83.3286 17.7292 82.9054 17.7292C80.8852 17.7292 80.2476 16.0815 80.2476 12.9441C80.2476 10.6305 79.9034 10.5515 79.7171 10.5515C79.2375 10.5515 78.7353 11.0029 77.618 12.9441C76.6361 14.6426 75.9703 16.1323 74.4016 16.1323C73.5269 16.1323 72.8328 15.4664 72.4096 14.62C70.8127 16.3749 68.9562 17.7292 66.9642 17.7292C66.541 17.7292 66.1686 17.3568 66.1686 16.9336C66.1686 16.5104 66.541 16.1379 66.9642 16.1379C68.3749 16.1379 70.2032 14.8344 71.8284 12.8707C71.5914 11.7816 71.4842 10.5571 71.4842 8.96582C71.4842 4.6603 72.3363 0.196777 75.2028 0.196777C76.986 0.196777 77.5954 1.95171 77.5954 3.38501C77.5954 6.17259 75.8123 10.2693 73.5833 13.2431C73.9219 14.3604 74.3733 14.5466 74.4016 14.5466ZM75.1972 1.79371C74.3451 1.79371 73.0698 4.23708 73.0698 8.96582C73.0698 9.7389 73.098 10.4273 73.1488 11.0368C74.8473 8.37896 75.9928 5.26973 75.9928 3.38501C75.9928 2.1605 75.5414 1.79371 75.1972 1.79371Z" fill="#F6F6F7"/>
<path d="M92.7352 10.292C92.8424 10.292 92.9722 10.3202 93.0794 10.371C94.9642 11.3021 94.8852 11.3529 96.9843 11.3529C97.4075 11.3529 97.78 11.7253 97.78 12.1485C97.78 12.5717 97.4075 12.9441 96.9843 12.9441C96.4765 12.9441 96.025 12.9441 95.6808 12.9159C95.867 13.3956 95.9178 13.8188 95.9178 14.2702C95.9178 16.9562 93.5534 18.5193 91.1326 18.5193C89.3269 18.5193 87.3576 17.6447 86.7763 15.8107C85.7663 16.8208 84.491 17.7237 82.894 17.7237C82.4708 17.7237 82.0984 17.3512 82.0984 16.928C82.0984 16.5048 82.4708 16.1324 82.894 16.1324C84.9424 16.1324 86.9343 13.1304 87.8372 11.9341C87.9726 11.7479 88.2378 11.6124 88.5031 11.6124C88.9545 11.6124 89.2761 12.0131 89.2761 12.4081C89.2761 12.5661 89.2254 12.7297 89.1407 12.8595C88.5821 13.6834 88.2096 14.3492 88.2096 14.8007C88.2096 16.0252 89.4849 16.928 91.1326 16.928C92.9666 16.928 94.3209 15.8389 94.3209 14.2702C94.3209 13.4182 94.0839 12.7805 92.3289 11.7704C92.1145 11.635 91.9283 11.3472 91.9283 11.0538C91.9396 10.5854 92.3346 10.292 92.7352 10.292Z" fill="#F6F6F7"/>
<path d="M99.9074 26.7691C98.4177 26.7691 97.2496 25.601 97.2496 24.1113C97.2496 23.6881 97.622 23.3157 98.0452 23.3157C98.4684 23.3157 98.8409 23.6881 98.8409 24.1113C98.8409 24.749 99.2641 25.1722 99.9017 25.1722C101.042 25.1722 101.764 24.0041 101.764 22.2492C101.764 19.5124 100.274 15.9517 99.2415 12.4982C98.5249 12.7917 97.78 12.9497 96.9844 12.9497C96.5611 12.9497 96.1887 12.5772 96.1887 12.154C96.1887 11.7308 96.5611 11.3584 96.9844 11.3584C97.622 11.3584 98.2314 11.2004 98.8183 10.9352C98.5249 9.71066 98.3104 8.51437 98.3104 7.37451C98.3104 4.31606 99.1343 0.998047 101.499 0.998047C103.333 0.998047 104.156 3.04641 104.156 4.98192C104.156 7.56072 102.746 10.1621 100.675 11.68C101.685 15.1109 103.361 18.8804 103.361 22.2548C103.361 24.2185 102.486 26.7691 99.9074 26.7691ZM101.504 2.58934C101.053 2.58934 99.9074 4.05085 99.9074 7.37451C99.9074 8.17016 100.015 9.07302 100.223 10.0041C101.634 8.7288 102.56 6.75943 102.56 4.98192C102.565 3.19877 101.798 2.58934 101.504 2.58934Z" fill="#F6F6F7"/>
<path d="M112.395 10.292C112.502 10.292 112.632 10.3202 112.739 10.371C114.624 11.3021 114.545 11.3529 116.644 11.3529C117.067 11.3529 117.44 11.7253 117.44 12.1485C117.44 12.5717 117.067 12.9441 116.644 12.9441C116.142 12.9441 115.69 12.9441 115.341 12.9159C115.527 13.3956 115.578 13.8188 115.578 14.2702C115.578 16.9562 113.213 18.5193 110.792 18.5193C108.721 18.5193 106.278 17.2948 106.278 14.8007V14.6934C104.867 15.7825 103.57 16.8998 102.187 18.2823C100.912 19.5576 98.8408 22.4016 98.8408 24.3654C98.8408 24.7886 98.4684 25.161 98.0452 25.161C97.6219 25.161 97.2495 24.7886 97.2495 24.3654C97.2495 21.5496 99.6929 18.5475 101.075 17.165C103.225 15.0151 105.274 13.3674 107.694 11.7422C107.83 11.6632 107.988 11.6068 108.146 11.6068C108.626 11.6068 108.942 12.0074 108.942 12.4024C108.942 12.5604 108.891 12.7241 108.806 12.8539C108.248 13.6777 107.875 14.3436 107.875 14.795C107.875 16.0195 109.15 16.9224 110.798 16.9224C112.632 16.9224 113.986 15.8333 113.986 14.2646C113.986 13.4125 113.749 12.7749 111.994 11.7648C111.78 11.6294 111.594 11.3416 111.594 11.0481C111.599 10.5854 112 10.292 112.395 10.292Z" fill="#F6F6F7"/>
<path d="M133.657 17.7348C133.443 17.7348 133.257 17.6558 133.099 17.4978C132.089 16.4878 131.795 15.1843 131.795 13.751C131.795 11.4374 131.451 11.3584 131.265 11.3584C130.813 11.3584 130.148 12.1032 129.008 13.8017C128.026 15.2915 127.095 16.9392 125.419 16.9392C123.478 16.9392 123.291 14.8908 123.291 12.9553C123.291 10.7489 122.947 10.5627 122.496 10.5627C121.965 10.5627 121.435 10.8279 120.82 11.2286C119.674 12.0017 118.427 12.9553 116.65 12.9553C116.227 12.9553 115.854 12.5829 115.854 12.1597C115.854 11.7365 116.227 11.364 116.65 11.364C117.79 11.364 118.67 10.7264 119.917 9.90251C120.583 9.45108 121.429 8.97144 122.496 8.97144C124.488 8.97144 124.888 10.9126 124.888 12.9553C124.888 15.2689 125.233 15.3479 125.419 15.3479C125.87 15.3479 126.536 14.603 127.676 12.9045C128.658 11.4148 129.589 9.76708 131.265 9.76708C133.206 9.76708 133.392 11.8155 133.392 13.751C133.392 14.9755 133.629 15.7993 134.216 16.3805C134.374 16.5385 134.453 16.7248 134.453 16.9392C134.453 17.3624 134.081 17.7348 133.657 17.7348Z" fill="#F6F6F7"/>
<path d="M27.4075 14.4959C27.4075 18.1807 25.9573 21.5156 23.5929 23.9759C22.6788 24.9352 21.6235 25.7591 20.4611 26.408C18.4635 27.5479 16.1556 28.1968 13.7009 28.1968C6.13382 28.1968 0 22.063 0 14.4959C0 6.92877 6.13382 0.789307 13.7009 0.789307C21.268 0.789307 27.4075 6.92877 27.4075 14.4959Z" fill="#005751"/>
<path d="M22.2387 20.8384C21.7703 20.8384 21.3132 20.6466 20.9859 20.3193C20.653 19.992 20.4668 19.5293 20.4668 19.0666C20.4668 18.5982 20.6587 18.1411 20.9859 17.8082C21.3132 17.4809 21.7759 17.2891 22.2387 17.2891C22.707 17.2891 23.1641 17.4809 23.497 17.8082C23.8243 18.1411 24.0162 18.5982 24.0162 19.0666C24.0162 19.5349 23.8243 19.992 23.497 20.3193C23.1641 20.6522 22.707 20.8384 22.2387 20.8384Z" fill="white"/>
<path d="M14.9706 3.10845C14.9028 3.10281 14.8408 3.09717 14.7731 3.09717C13.8815 3.09717 13.114 3.76867 13.0125 4.67718C12.9053 5.64775 13.605 6.52804 14.5812 6.63526C14.6489 6.6409 14.7166 6.64654 14.7787 6.64654C15.2245 6.64654 15.6421 6.47726 15.9581 6.19511C16.2741 5.91297 16.4885 5.51797 16.5393 5.06654C16.5449 4.99882 16.5506 4.93675 16.5506 4.86903C16.5506 3.97746 15.8791 3.21003 14.9706 3.10845ZM10.2588 5.26968C9.92582 4.71668 9.33332 4.40632 8.72953 4.40632C8.41917 4.40632 8.10881 4.49096 7.82102 4.66025C6.98023 5.16246 6.70937 6.25154 7.21159 7.09233C7.54452 7.65098 8.13138 7.95569 8.73517 7.95569C9.04553 7.95569 9.36153 7.87669 9.64368 7.70741C10.2023 7.36883 10.507 6.78197 10.507 6.17818C10.507 5.86783 10.428 5.55182 10.2588 5.26968ZM21.6066 6.20076C21.2624 5.87347 20.8222 5.70982 20.3821 5.70982C19.9137 5.70982 19.4454 5.89604 19.0955 6.26283C18.4184 6.96819 18.4466 8.09676 19.1576 8.76827C19.5018 9.09555 19.9419 9.2592 20.3821 9.2592C20.8504 9.2592 21.3188 9.07863 21.663 8.71184C21.9903 8.36762 22.154 7.92183 22.154 7.48169C22.154 7.01333 21.9734 6.55061 21.6066 6.20076ZM5.37765 9.23663C5.16322 9.14634 4.93751 9.10684 4.71744 9.10684C4.01208 9.10684 3.34621 9.53006 3.06407 10.2241C2.70293 11.1326 3.14307 12.1653 4.05158 12.5264C4.27165 12.6167 4.49172 12.6619 4.71179 12.6619C5.41715 12.6619 6.08301 12.2386 6.35952 11.5446C6.4498 11.3245 6.4893 11.1044 6.4893 10.8844C6.4893 10.179 6.06609 9.51313 5.37765 9.23663ZM25.0149 12.6788C24.8795 11.8098 24.1233 11.1834 23.26 11.1834C23.1697 11.1834 23.0794 11.1891 22.9835 11.206C22.0185 11.3584 21.3527 12.2725 21.5107 13.2374C21.5784 13.6776 21.8041 14.05 22.1145 14.3152C22.4305 14.5804 22.8311 14.7328 23.26 14.7328C23.3559 14.7328 23.4462 14.7272 23.5421 14.7102C24.4168 14.5748 25.0375 13.8243 25.0375 12.9666C25.0375 12.8706 25.0318 12.7747 25.0149 12.6788ZM6.07173 16.5893C5.8573 15.8049 5.14065 15.2858 4.36193 15.2858C4.20958 15.2858 4.05158 15.3027 3.89357 15.3479C2.94557 15.6074 2.39257 16.5837 2.65214 17.5317C2.75935 17.921 2.99071 18.2483 3.29543 18.4797C3.60014 18.7054 3.97258 18.8352 4.36193 18.8352C4.51429 18.8352 4.67229 18.8126 4.83029 18.7731C5.6203 18.5587 6.1338 17.842 6.1338 17.0633C6.1338 16.9053 6.11687 16.7473 6.07173 16.5893ZM8.89882 20.7763C8.57717 20.5337 8.1991 20.4152 7.82102 20.4152C7.29059 20.4152 6.76016 20.6522 6.4103 21.1093C5.81216 21.888 5.96451 22.9996 6.73759 23.5978C7.05923 23.8461 7.44295 23.9646 7.82102 23.9646C8.35145 23.9646 8.88189 23.7219 9.23175 23.2648C9.47439 22.9432 9.59289 22.5651 9.59289 22.1871C9.59289 21.6566 9.35589 21.1262 8.89882 20.7763Z" fill="white"/>
<path d="M13.7009 25.9507C13.2326 25.9507 12.7755 25.7589 12.4482 25.4316C12.1209 25.0987 11.9291 24.6416 11.9291 24.1732C11.9291 23.7049 12.1209 23.2478 12.4482 22.9205C12.7812 22.5876 13.2382 22.4014 13.7009 22.4014C14.1693 22.4014 14.6264 22.5932 14.9593 22.9205C15.2866 23.2534 15.4785 23.7105 15.4785 24.1732C15.4785 24.6416 15.2866 25.0987 14.9593 25.4316C14.6264 25.7645 14.1693 25.9507 13.7009 25.9507Z" fill="white"/>
<path d="M23.5929 23.976C22.6788 24.9353 21.6236 25.7591 20.4611 26.408C19.4623 25.7478 18.0968 24.3597 17.6566 21.6172L18.4748 21.1094C18.4748 21.1094 20.5458 23.3891 23.5929 23.976Z" fill="white"/>
<path d="M18.4184 13.0963C18.2491 14.7723 17.5324 15.8557 16.6296 17.2326C16.4659 17.4865 16.2402 17.8025 15.9581 18.1185C15.8001 18.316 15.6477 18.4289 15.4784 18.5643C13.7009 20.0201 11.2237 17.1987 10.1685 15.9573C9.01733 14.6086 7.80411 11.9057 10.0782 10.873C11.5002 10.2241 13.0633 11.4373 14.0677 12.707C14.5869 11.7364 15.5349 10.5345 16.6578 10.4385C18.187 10.3144 18.5425 11.8944 18.4184 13.0963Z" fill="#A6CBB9"/>
</svg>
