<svg width="21" height="20" viewBox="0 0 21 20" fill="none" xmlns="http://www.w3.org/2000/svg">
<path fill-rule="evenodd" clip-rule="evenodd" d="M15.5575 13.5975L20.0375 18.0775C20.4575 18.4975 20.4575 19.1275 20.1075 19.6175C19.8975 19.8275 19.6175 19.8975 19.3375 19.8975C19.0575 19.8975 18.7775 19.8275 18.5675 19.6175L14.0875 15.1375C13.9996 15.0936 13.9669 15.022 13.9374 14.9576C13.9199 14.9193 13.9036 14.8836 13.8775 14.8575C12.3375 16.1875 10.4475 16.8175 8.4875 16.8175C6.3175 16.8175 4.1475 15.9775 2.4675 14.3675C-0.8225 11.0775 -0.8225 5.7575 2.4675 2.4675C5.7575 -0.8225 11.0775 -0.8225 14.3675 2.4675C17.3775 5.4075 17.6575 10.0975 15.2075 13.3875C15.3475 13.4575 15.4875 13.5275 15.5575 13.5975ZM4.0075 4.0075C1.5575 6.4575 1.5575 10.4475 4.0075 12.8975C6.4575 15.3475 10.4475 15.3475 12.9675 12.8275C15.4175 10.3775 15.4175 6.3875 12.9675 3.9375C11.7075 2.7475 10.0975 2.1175 8.4875 2.1175C6.8775 2.1175 5.2675 2.7475 4.0075 4.0075Z" fill="#F6F6F7"/>
</svg>
