<svg width="51" height="52" viewBox="0 0 51 52" fill="none" xmlns="http://www.w3.org/2000/svg">
<rect y="0.196777" width="51" height="51" rx="10" fill="#A6CBB9"/>
<path d="M25.1875 13.1968C18.4568 13.1968 13 18.6536 13 25.3843C13 32.1044 18.468 37.5718 25.1875 37.5718C31.9176 37.5718 37.375 32.1144 37.375 25.3843C37.375 18.6642 31.9076 13.1968 25.1875 13.1968ZM31.5156 27.2593H24.4844C24.4222 27.2593 24.3626 27.2346 24.3186 27.1906C24.2747 27.1467 24.25 27.0871 24.25 27.0249V17.1812C24.25 17.119 24.2747 17.0594 24.3186 17.0154C24.3626 16.9715 24.4222 16.9468 24.4844 16.9468H25.8906C25.9528 16.9468 26.0124 16.9715 26.0564 17.0154C26.1003 17.0594 26.125 17.119 26.125 17.1812V25.3843H31.5156C31.5778 25.3843 31.6374 25.409 31.6814 25.4529C31.7253 25.4969 31.75 25.5565 31.75 25.6187V27.0249C31.75 27.0871 31.7253 27.1467 31.6814 27.1906C31.6374 27.2346 31.5778 27.2593 31.5156 27.2593Z" fill="white"/>
</svg>
